<svg width="30" height="30" viewBox="0 0 30 30" fill="none" xmlns="http://www.w3.org/2000/svg">
<path d="M24.375 3.44063C24.375 3.91525 24.0222 4.30742 23.5646 4.36942L23.4373 4.37796L7.18225 4.375C6.6645 4.3749 6.24487 3.9551 6.24487 3.43733C6.24487 2.96271 6.59775 2.57052 7.05538 2.50854L7.18263 2.5L23.4377 2.50296C23.9554 2.50305 24.375 2.92286 24.375 3.44063ZM22.1203 19.5589L22.2255 19.6496C22.5583 19.9825 22.5885 20.5034 22.3161 20.8704L22.2254 20.9755L15.9783 27.2213C15.6456 27.5539 15.1251 27.5842 14.7581 27.3123L14.653 27.2216L8.39863 20.9759C8.03225 20.61 8.03188 20.0164 8.39775 19.65C8.73038 19.317 9.25113 19.2864 9.61838 19.5584L9.72363 19.6491L14.37 24.2875L14.3689 7.19119C14.3689 6.71658 14.7215 6.32432 15.1791 6.26225L15.3064 6.25369C15.7809 6.25369 16.1731 6.60639 16.2353 7.06397L16.2439 7.19119L16.245 24.3038L20.8997 19.6495C21.2325 19.3167 21.7534 19.2865 22.1203 19.5589L22.2255 19.6496L22.1203 19.5589Z" fill="black"/>
</svg>
