<svg width="25" height="26" viewBox="0 0 25 26" fill="none" xmlns="http://www.w3.org/2000/svg">
<g clip-path="url(#clip0_50_569)">
<path d="M23.1545 0H1.84549C1.35603 0 0.886626 0.202212 0.540531 0.562152C0.194435 0.922092 0 1.41027 0 1.91931V24.0807C0 24.5897 0.194435 25.0779 0.540531 25.4379C0.886626 25.7978 1.35603 26 1.84549 26H23.1545C23.644 26 24.1134 25.7978 24.4595 25.4379C24.8056 25.0779 25 24.5897 25 24.0807V1.91931C25 1.41027 24.8056 0.922092 24.4595 0.562152C24.1134 0.202212 23.644 0 23.1545 0ZM7.45139 22.1488H3.69271V9.73195H7.45139V22.1488ZM5.56944 8.01125C5.14309 8.00875 4.72699 7.87496 4.37368 7.62676C4.02037 7.37856 3.74567 7.02708 3.58425 6.61666C3.42283 6.20625 3.38192 5.75531 3.4667 5.32074C3.55147 4.88618 3.75813 4.48747 4.06058 4.17493C4.36303 3.86239 4.74772 3.65004 5.16611 3.56467C5.5845 3.47929 6.01783 3.52473 6.41141 3.69523C6.80499 3.86574 7.14119 4.15368 7.37757 4.52271C7.61395 4.89175 7.73992 5.32533 7.73958 5.76875C7.74361 6.06562 7.69012 6.36029 7.5823 6.63521C7.47449 6.91012 7.31456 7.15964 7.11205 7.36891C6.90954 7.57817 6.66859 7.74289 6.40357 7.85325C6.13854 7.9636 5.85486 8.01734 5.56944 8.01125ZM21.3056 22.1596H17.5486V15.3761C17.5486 13.3756 16.7309 12.7581 15.6753 12.7581C14.5608 12.7581 13.467 13.6319 13.467 15.4267V22.1596H9.70833V9.74097H13.3229V11.4617H13.3715C13.7344 10.6979 15.0052 9.3925 16.9444 9.3925C19.0417 9.3925 21.3073 10.6871 21.3073 14.4788L21.3056 22.1596Z" fill="#E8EEF2"/>
</g>
<defs>
<clipPath id="clip0_50_569">
<rect width="25" height="26" fill="white"/>
</clipPath>
</defs>
</svg>
