<svg width="26" height="26" viewBox="0 0 26 26" fill="none" xmlns="http://www.w3.org/2000/svg">
<g clip-path="url(#clip0_50_568)">
<path d="M25.4822 6.70094C25.3353 6.14781 25.0456 5.64298 24.6422 5.23699C24.2388 4.83099 23.7358 4.53807 23.1836 4.38753C21.1509 3.84094 13.0259 3.84094 13.0259 3.84094C13.0259 3.84094 4.90088 3.84094 2.86815 4.38753C2.31597 4.53807 1.81301 4.83099 1.40961 5.23699C1.0062 5.64298 0.71651 6.14781 0.569515 6.70094C0.025879 8.74253 0.0258789 13 0.0258789 13C0.0258789 13 0.025879 17.2575 0.569515 19.2991C0.71651 19.8523 1.0062 20.3571 1.40961 20.7631C1.81301 21.1691 2.31597 21.462 2.86815 21.6125C4.90088 22.1591 13.0259 22.1591 13.0259 22.1591C13.0259 22.1591 21.1509 22.1591 23.1836 21.6125C23.7358 21.462 24.2388 21.1691 24.6422 20.7631C25.0456 20.3571 25.3353 19.8523 25.4822 19.2991C26.0259 17.2575 26.0259 13 26.0259 13C26.0259 13 26.0259 8.74253 25.4822 6.70094Z" fill="#E8EEF2"/>
<path d="M10.3667 16.8661V9.13403L17.1621 13.0001L10.3667 16.8661Z" fill="#98082C"/>
</g>
<defs>
<clipPath id="clip0_50_568">
<rect width="26" height="26" fill="white"/>
</clipPath>
</defs>
</svg>
