<svg width="341" height="218" viewBox="0 0 341 218" fill="none" xmlns="http://www.w3.org/2000/svg">
<g filter="url(#filter0_d_108_77)">
<path d="M296.881 210H294.794C290.31 208.291 285.535 207.489 281.06 205.727C280.143 205.366 279.183 205.551 278.24 205.63C276.373 205.692 275.122 204.459 273.712 203.534C272.4 202.274 271.052 201.111 269.043 201.137C268.427 201.137 267.88 200.776 267.546 200.248C265.643 197.252 263.026 196.354 259.67 197.481C258.498 197.878 257.917 197.19 257.538 196.204C257.476 194.31 256.604 193.085 254.64 192.882C252.772 192.689 251.195 191.79 249.583 190.944C245.302 188.997 241.716 185.932 237.69 183.579C235.946 182.557 235.602 179.853 233.946 179.5C232.008 179.077 230.334 178.505 228.801 177.36C226.714 175.8 224.511 174.399 222.362 172.946C221.789 172.558 221.04 172.276 220.705 171.704C219.058 168.876 216.08 168.7 213.411 167.898C212.997 167.774 212.442 167.854 212.187 167.519C209.861 164.427 205.967 164.744 202.928 163.229C198.532 161.035 193.748 159.484 190.365 155.635C189.714 154.894 188.965 154.357 188.04 154.031C183.476 152.437 180.279 149.591 179.362 144.613C179.125 143.292 178.12 142.578 177.028 141.988C173.751 140.191 170.597 138.191 167.399 136.279C166.122 135.513 164.862 134.808 163.32 134.702C161.964 134.614 160.783 133.883 159.84 133.046C156.29 129.901 151.762 128.368 147.983 125.619C146.794 124.756 145.543 124.501 144.071 124.606C140.512 124.862 136.936 125.003 133.694 123.065C132.725 122.695 131.817 122.21 131.104 121.47C129.994 120.316 128.69 119.972 127.166 120.316C124.92 119.206 122.708 118.21 120.03 118.439C118.594 118.563 117.475 117.083 116.119 116.501C115.079 116.061 114.101 115.409 112.912 115.955C110.683 116.986 108.648 116.211 107.204 114.686C105.327 112.713 103.636 112.722 101.504 114.043C99.5921 115.241 97.654 115.25 95.6367 113.973C93.9012 112.872 92.1481 113.065 90.7562 114.766C90.069 115.594 89.2674 116.307 88.1398 116.281C85.8229 116.228 83.8143 116.898 81.7264 117.955C80.3081 118.677 78.9338 119.047 78.2202 120.668C77.6564 121.963 76.3526 122.113 75.1017 122.087C73.3662 122.051 71.6571 121.99 70.0098 122.774C69.0583 123.223 68.1245 122.844 67.4198 122.078C66.4331 121.012 65.4729 121.188 64.4774 122.06C62.5393 123.769 60.2488 124.263 57.7117 124.21C54.505 124.148 51.3071 124.148 48.1005 124.589C44.9819 125.02 41.8633 124.791 38.9474 123.329C37.5731 122.633 36.19 122.351 34.7981 123.417C33.8643 124.131 32.7983 124.025 31.8998 123.302C30.4462 122.148 29.2745 122.615 27.9443 123.62C25.3455 125.584 23.61 124.976 22.4736 121.849C21.1257 118.157 22.4736 114.66 23.3369 111.154C23.6717 109.815 24.2795 108.537 24.8962 107.295C25.7067 105.648 25.9093 103.991 25.2045 102.265C24.6231 100.837 24.861 99.604 25.9269 98.4323C27.0986 97.146 27.8033 95.5162 28.7283 94.0538C29.715 92.4944 29.8207 90.847 28.8429 89.1291C27.2924 86.4069 27.5479 83.6318 28.8957 80.9007C29.4771 79.7202 30.3229 79.0242 31.4152 79.2268C28.1469 77.7468 26.8695 74.7074 26.4731 71.1042C26.3145 69.6417 26.9752 68.796 28.3671 68.4084C27.8826 68.2057 27.1779 68.3555 26.9488 67.9679C25.0812 64.7347 22.174 66.5142 19.7074 66.5054C18.2186 66.5054 16.8267 66.7081 15.4788 65.7918C14.4217 65.0694 13.1267 65.3337 11.9198 65.2809C7.09214 65.0606 5.88524 63.8977 5.9469 59.1316C5.98214 56.5591 5.9469 54.0836 4 52.1014V47.9343C4.36119 47.4586 4.59905 46.7097 5.28619 46.7538C8.92452 47.0005 10.29 43.2651 13.2412 42.252C14.3071 41.8908 14.0869 40.6574 13.7521 39.7147C13.25 38.3228 13.5143 37.107 14.6595 36.1996C17.8221 33.7064 19.4079 30.2882 20.5002 26.5616C21.0817 24.5882 22.1564 22.9408 23.5748 21.496C24.7024 20.3595 25.83 20.1921 27.2748 21.1612C30.0321 23.0025 30.0145 22.8263 32.6926 20.7736C34.5514 19.3464 36.9917 19.3904 39.194 19.2407C42.7443 18.994 46.3033 18.994 49.7655 18.0337C50.8402 17.7342 51.5626 18.4037 52.3555 18.95C55.1481 20.8881 56.6017 20.6855 58.3195 17.8575C59.086 16.6065 59.8876 16.0779 61.2707 16.5625C63.341 17.2937 65.376 16.8973 67.4374 16.492C70.8202 15.8313 73.745 17.373 74.7757 20.6414C75.3924 22.5884 76.0707 23.7777 78.3788 23.0465C79.3831 22.7294 80.405 23.3989 81.4445 23.4165C81.9202 22.6148 81.2067 22.0863 81.0921 21.4519C80.6252 18.7209 81.4357 17.2673 84.105 16.6153C85.6907 16.2277 87.0298 15.6815 87.9724 14.2455C88.9238 12.8007 90.2893 12.9593 91.6812 13.5583C92.659 13.9812 93.4343 14.686 94.1479 15.4524C95.7952 17.2232 97.795 17.3818 99.8829 16.5889C101.583 15.9458 103.371 15.4613 104.895 14.4305C106.42 13.3998 107.653 13.7786 108.807 15.0208C109.159 15.3996 109.626 15.7256 109.838 16.1837C111.459 19.6195 114.771 19.8486 117.872 20.4652C118.903 20.6679 119.713 20.1833 120.444 19.505C125.06 15.2322 130.39 13.7169 136.53 15.3555C137.693 15.6639 138.689 15.4965 139.72 14.8005C142.31 13.0562 145.137 11.6995 147.754 9.99035C149.331 9.46176 150.282 10.5189 151.322 11.3823C152.317 12.0959 153.198 12.9593 153.806 14.0076C155.33 16.6594 158.07 17.6813 160.475 19.1702C161.356 19.7164 161.629 19.2231 161.972 18.4742C163.919 14.2367 164.272 14.0957 168.861 15.2851C172.121 16.1308 175.248 13.8843 175.292 10.5454C175.319 8.54554 175.715 7.03025 177.979 6.45761C179.398 6.09641 179.97 4.60754 180.807 3.52393C181.75 2.29937 182.331 0.784075 183.785 0H184.824C186.058 0.590259 186.613 1.60339 186.419 2.92486C186.243 4.10538 186.71 5.10089 187.115 6.13164C186.718 7.93766 186.665 9.78773 186.128 11.6026C185.388 14.1134 187.432 15.2058 189.229 16.2541C190.057 16.8268 190.445 17.6549 190.568 18.624C190.744 20.0424 190.586 21.5841 192.348 22.236C194.171 22.9144 194.532 20.9938 195.66 20.4212C196.189 20.1393 196.823 20.0688 197.193 19.505C198.417 17.6461 200.259 17.4875 202.25 17.6109C203.095 17.6637 204.223 18.2452 204.584 16.8004C205.086 15.5053 204.919 14.0253 205.659 12.7919C206.267 11.7787 207.015 10.889 208.337 11.1532C209.526 11.3911 209.94 12.4131 210.16 13.4614C210.539 15.2498 209.984 16.9501 209.271 18.5095C207.245 22.9408 206.663 27.8743 204.311 32.1823C203.562 33.5567 203.959 35.0719 205.324 35.8208C206.778 36.6225 208.513 37.0189 209.896 35.5917C211.958 33.4686 214.468 31.2309 215.032 28.5174C215.719 25.1961 216.08 21.5665 215.86 18.1835C215.728 16.0779 214.433 13.8138 214.081 11.4968C214.019 11.0652 213.913 10.6423 213.913 10.2106C213.913 9.10056 213.596 7.7967 214.768 7.14478C216.028 6.43999 216.829 7.53241 217.657 8.28124C218.433 9.17985 219.287 8.86269 220.239 8.56316C222.326 7.91123 224.317 7.94647 225.912 9.77892C227.084 11.1356 228.942 10.8361 230.405 11.5497C232.907 12.7654 233.241 13.576 231.303 15.4436C229.92 16.7739 230.502 18.3068 230.334 19.7869C230.361 22.1567 230.484 24.5354 229.127 26.6586C228.978 27.4338 229.136 28.2091 229.154 28.9844C229.198 30.4732 229.867 31.037 231.383 31.1956C234.73 31.5392 235.594 33.1866 234.272 36.2437C233.453 38.1378 234.281 39.5561 236.307 39.5209C237.743 39.4945 239.047 39.6442 240.192 40.6133C240.897 41.2124 241.707 41.4415 242.571 40.8952C243.02 39.5121 243.02 38.0321 243.531 36.6489C243.989 35.4155 244.456 34.3231 245.989 34.4641C247.566 34.605 248.5 35.8825 248.288 37.1423C247.839 39.794 249.284 41.0186 251.116 42.3312C252.869 43.5911 253.495 45.4676 253.019 47.6348C252.878 48.2867 252.473 48.9474 252.992 49.617C253.662 50.3041 254.27 51.1499 255.204 51.3966C257.327 51.9604 258.745 53.0352 259.036 55.3786C259.177 56.5063 260.163 56.5679 261.071 56.4358C262.921 56.1539 263.661 57.1142 263.634 58.788C263.599 60.8495 264.41 61.4486 266.568 61.66C270.832 62.0829 274.558 60.3474 278.478 59.3871C280.17 58.973 281.667 58.8409 283.244 59.6338C284.883 60.4531 286.742 60.6205 288.451 61.2548C289.296 61.5631 290.08 62.0124 290.151 63.0167C290.23 64.1444 289.244 64.3735 288.477 64.717C284.742 66.3733 284.469 67.3424 287.499 70.1175C290.001 72.3992 290.741 74.496 289.155 77.8261C287.737 80.8126 286.98 84.2132 286.839 87.6226C288.415 88.9 290.142 89.9396 291.684 91.2699C293.393 92.7411 293.666 94.0714 292.204 95.8598C290.415 98.0446 287.508 98.6789 284.68 97.5513C283.746 97.1813 282.989 96.2915 281.844 96.5205C281.518 96.6703 281.218 96.8553 280.945 97.0756C278.848 100.133 279.923 102.617 283.579 103.049C284.698 103.181 285.781 103.427 286.874 103.674C288.68 104.846 289.922 104.467 290.776 102.432C291.164 101.516 291.728 100.626 292.538 99.9564C296.045 97.1725 299.005 97.5777 300.529 101.031C301.26 102.687 301.207 104.194 299.859 105.551C299.145 106.273 298.265 106.916 298.168 108.061C297.41 111.48 298.802 113.99 301.559 115.849C303.674 117.268 304.74 119.223 304.889 121.725C305.145 125.937 306.634 129.416 310.395 131.751C311.629 132.518 312.615 133.707 313.435 134.94C314.782 136.958 316.368 138.561 318.932 138.905C319.61 138.993 320.5 139.266 320.588 139.988C320.905 142.71 323.231 144.569 323.433 147.406C323.636 150.225 324.949 151.714 327.591 151.3C333.168 150.41 334.974 154.137 337 157.89V158.41C336.612 158.788 336.128 159.026 335.599 159.017C331.6 158.956 327.644 159.352 323.698 159.969C322.455 160.163 321.486 159.555 320.852 158.524C318.703 155.071 315.663 152.507 312.536 150.014C311.919 149.52 311.4 148.948 311.03 148.243C310.721 147.644 310.254 147.3 309.558 147.433C306.819 147.988 304.607 146.657 302.537 145.265C298.714 142.693 294.406 143.556 290.036 142.807C290.512 144.102 291.375 144.102 292.036 144.332C293.772 144.922 295.472 145.591 296.925 146.719C298.608 148.014 300.581 148.428 302.546 149.089C306.651 150.472 311.003 151.908 312.932 156.515C313.1 156.912 313.285 157.361 313.62 157.608C316.817 160.057 317.557 163.405 317.601 167.237C317.628 169.81 318.104 172.408 318.659 174.954C319.081 176.893 318.711 178.558 317.223 179.923C316.368 180.707 316.007 181.703 315.655 182.822C314.976 184.962 314.677 186.892 316.042 188.927C316.809 190.055 316.007 191.147 315.003 191.79C312.615 193.305 311.91 195.429 311.364 198.204C310.695 201.631 308.501 204.626 304.88 206C304.237 206.247 303.383 206.256 303.03 206.855C301.63 209.251 299.26 209.63 296.864 210H296.881Z" fill="#98082C"/>
</g>
<g filter="url(#filter1_d_108_77)">
<path d="M111.511 54.6877L108.839 60.9925L116.823 64.3773L115.48 67.5445L107.496 64.1596L103.817 72.8361L99.8402 71.1499L108.871 49.8491L122.305 55.5446L120.969 58.697L111.511 54.6877ZM128.307 72.2527C128.507 71.7813 128.626 71.3102 128.663 70.8395C128.714 70.3631 128.674 69.9115 128.542 69.4848C128.41 69.0582 128.176 68.669 127.838 68.3174C127.515 67.9601 127.083 67.667 126.543 67.438C125.492 66.9925 124.535 66.9402 123.672 67.2811C122.819 67.6262 122.076 68.3133 121.443 69.3424L128.307 72.2527ZM120.439 71.5061C120.169 72.3069 120.021 73.0379 119.995 73.6991C119.974 74.3505 120.061 74.9377 120.256 75.4608C120.456 75.974 120.757 76.4259 121.159 76.8165C121.575 77.2015 122.078 77.5188 122.667 77.7686C123.256 78.0185 123.791 78.1641 124.272 78.2057C124.762 78.2514 125.2 78.2574 125.585 78.2236C125.98 78.1941 126.324 78.1605 126.618 78.1229C126.922 78.0895 127.187 78.1207 127.412 78.2165C127.717 78.3455 127.895 78.5542 127.946 78.8426L128.43 80.6117C127.828 80.9124 127.207 81.1187 126.569 81.2304C125.935 81.3323 125.301 81.3649 124.668 81.3282C124.049 81.2858 123.438 81.1831 122.835 81.0202C122.242 80.8615 121.68 80.6697 121.15 80.4448C120.099 79.9994 119.195 79.4132 118.437 78.6865C117.683 77.9499 117.116 77.1013 116.736 76.1405C116.36 75.17 116.192 74.1027 116.234 72.9386C116.28 71.7647 116.584 70.5149 117.146 69.1891C117.583 68.1579 118.16 67.2614 118.877 66.4994C119.598 65.7277 120.409 65.139 121.311 64.7335C122.227 64.3224 123.215 64.1098 124.275 64.0959C125.345 64.0861 126.445 64.3206 127.574 64.7994C128.527 65.2032 129.341 65.7281 130.018 66.3739C130.694 67.0198 131.197 67.7601 131.526 68.595C131.86 69.42 132.008 70.3285 131.97 71.3202C131.946 72.3064 131.702 73.3445 131.24 74.4346C131.007 74.9845 130.79 75.3327 130.589 75.4792C130.392 75.6158 130.127 75.6133 129.793 75.4718L120.439 71.5061ZM144.747 75.8336C144.583 75.9491 144.432 76.0183 144.294 76.0413C144.161 76.0544 144.011 76.0256 143.844 75.9548C143.668 75.8799 143.497 75.7496 143.332 75.5639C143.178 75.3825 142.993 75.1766 142.777 74.9463C142.566 74.7062 142.31 74.4642 142.008 74.2203C141.715 73.9806 141.339 73.7628 140.877 73.5672C140.16 73.2632 139.531 73.1761 138.989 73.3056C138.458 73.4394 138.088 73.7517 137.88 74.2428C137.742 74.5669 137.729 74.8855 137.839 75.1989C137.964 75.5065 138.162 75.8167 138.435 76.1293C138.718 76.4462 139.051 76.767 139.435 77.0918C139.823 77.4069 140.209 77.7387 140.594 78.0873C140.989 78.4401 141.364 78.8133 141.718 79.2069C142.077 79.5907 142.362 80.0126 142.572 80.4725C142.797 80.9269 142.92 81.4138 142.943 81.9333C142.976 82.457 142.864 83.0233 142.606 83.6322C142.297 84.3589 141.88 84.9754 141.352 85.4817C140.839 85.9823 140.231 86.3503 139.529 86.5855C138.831 86.811 138.049 86.891 137.185 86.8258C136.335 86.7549 135.418 86.5113 134.436 86.0949C133.916 85.8743 133.426 85.6087 132.967 85.2981C132.513 85.0016 132.091 84.672 131.7 84.3093C131.319 83.9509 130.98 83.5754 130.683 83.183C130.396 82.7948 130.161 82.4056 129.979 82.0156L131.406 80.9868C131.584 80.8657 131.766 80.7921 131.951 80.7662C132.136 80.7403 132.341 80.7752 132.567 80.871C132.793 80.9667 132.977 81.1201 133.119 81.331C133.271 81.5461 133.449 81.7835 133.651 82.0432C133.854 82.3029 134.105 82.5716 134.405 82.8491C134.714 83.1308 135.143 83.3883 135.693 83.6214C136.126 83.8046 136.515 83.9116 136.861 83.9425C137.221 83.9677 137.534 83.9385 137.802 83.8548C138.079 83.7753 138.307 83.6462 138.487 83.4676C138.681 83.2834 138.828 83.0734 138.928 82.8377C139.078 82.4842 139.093 82.1487 138.972 81.8312C138.862 81.5179 138.665 81.2028 138.382 80.886C138.109 80.5733 137.774 80.2574 137.377 79.9382C136.993 79.6134 136.599 79.2725 136.194 78.9155C135.799 78.5627 135.419 78.1874 135.055 77.7897C134.705 77.3863 134.421 76.9476 134.205 76.4736C133.999 76.0038 133.888 75.4874 133.872 74.9244C133.865 74.3656 134.004 73.7523 134.287 73.0845C134.549 72.4658 134.921 71.9286 135.404 71.4729C135.887 71.0173 136.452 70.6831 137.098 70.4705C137.758 70.2522 138.494 70.1702 139.305 70.2244C140.13 70.273 141.009 70.4951 141.942 70.8906C142.983 71.3319 143.858 71.9056 144.567 72.6115C145.275 73.3174 145.796 74.071 146.128 74.8723L144.747 75.8336ZM147.612 79.1161L155.242 82.351L153.956 85.3856L146.325 82.1506L147.612 79.1161ZM159.243 96.6117C157.927 96.0538 157.072 95.2567 156.677 94.2204C156.296 93.1784 156.382 92.0044 156.936 90.6982L160.515 82.2575L158.968 81.6017C158.772 81.5185 158.632 81.3838 158.548 81.1979C158.465 81.0119 158.477 80.7913 158.586 80.536L159.198 79.0923L161.797 79.725L164.311 75.9251C164.444 75.7495 164.602 75.6369 164.785 75.5871C164.968 75.5374 165.168 75.5583 165.384 75.6499L167.27 76.4493L165.252 81.2074L169.289 82.9185L168.189 85.5112L164.153 83.8L160.681 91.9904C160.481 92.4618 160.438 92.8779 160.551 93.2388C160.675 93.6039 160.938 93.8718 161.34 94.0425C161.566 94.1382 161.763 94.1928 161.931 94.2061C162.113 94.2138 162.271 94.2111 162.404 94.198C162.547 94.189 162.673 94.1787 162.782 94.1671C162.895 94.1457 162.996 94.1537 163.085 94.1911C163.193 94.2369 163.268 94.3039 163.312 94.3919C163.36 94.4702 163.401 94.58 163.433 94.7213L163.774 96.9511C163.056 97.1682 162.306 97.244 161.523 97.1784C160.739 97.1129 159.98 96.924 159.243 96.6117ZM178.83 93.6715C179.029 93.2001 179.148 92.729 179.185 92.2583C179.237 91.7819 179.196 91.3303 179.065 90.9037C178.933 90.477 178.698 90.0878 178.36 89.7362C178.037 89.3789 177.605 89.0858 177.065 88.8568C176.014 88.4113 175.057 88.359 174.194 88.7C173.341 89.045 172.598 89.7321 171.965 90.7613L178.83 93.6715ZM170.961 92.9249C170.691 93.7258 170.543 94.4567 170.518 95.1179C170.496 95.7693 170.583 96.3565 170.779 96.8796C170.978 97.3928 171.279 97.8448 171.681 98.2354C172.097 98.6203 172.6 98.9377 173.189 99.1875C173.778 99.4373 174.313 99.5829 174.794 99.6245C175.284 99.6702 175.722 99.6762 176.107 99.6425C176.502 99.6129 176.846 99.5793 177.14 99.5418C177.444 99.5084 177.709 99.5395 177.935 99.6353C178.239 99.7644 178.417 99.9731 178.469 100.261L178.953 102.031C178.35 102.331 177.73 102.537 177.091 102.649C176.457 102.751 175.824 102.784 175.191 102.747C174.571 102.705 173.96 102.602 173.357 102.439C172.764 102.28 172.203 102.088 171.672 101.864C170.621 101.418 169.717 100.832 168.959 100.105C168.206 99.3687 167.639 98.5201 167.258 97.5594C166.882 96.5888 166.714 95.5215 166.756 94.3574C166.802 93.1835 167.106 91.9337 167.668 90.6079C168.105 89.5767 168.682 88.6802 169.399 87.9183C170.12 87.1465 170.932 86.5579 171.833 86.1524C172.749 85.7412 173.737 85.5287 174.797 85.5147C175.868 85.5049 176.967 85.7394 178.097 86.2182C179.049 86.6221 179.864 87.1469 180.54 87.7927C181.216 88.4386 181.719 89.1789 182.049 90.0138C182.382 90.8389 182.53 91.7473 182.492 92.7391C182.468 93.7252 182.225 94.7633 181.763 95.8534C181.529 96.4033 181.312 96.7515 181.111 96.898C180.914 97.0346 180.649 97.0322 180.315 96.8906L170.961 92.9249ZM202.434 100.29C202.269 100.405 202.118 100.474 201.981 100.497C201.848 100.51 201.698 100.482 201.531 100.411C201.354 100.336 201.183 100.206 201.019 100.02C200.864 99.8385 200.679 99.6326 200.464 99.4023C200.253 99.1623 199.996 98.9203 199.694 98.6763C199.402 98.4366 199.025 98.2188 198.563 98.0232C197.846 97.7192 197.217 97.6321 196.676 97.7616C196.144 97.8954 195.774 98.2078 195.566 98.6988C195.428 99.0229 195.415 99.3416 195.525 99.6549C195.65 99.9625 195.849 100.273 196.122 100.585C196.404 100.902 196.738 101.223 197.121 101.548C197.509 101.863 197.895 102.195 198.281 102.543C198.675 102.896 199.05 103.269 199.405 103.663C199.763 104.047 200.048 104.469 200.258 104.929C200.483 105.383 200.607 105.87 200.63 106.389C200.663 106.913 200.55 107.479 200.292 108.088C199.984 108.815 199.566 109.431 199.038 109.938C198.525 110.438 197.917 110.806 197.215 111.042C196.517 111.267 195.736 111.347 194.871 111.282C194.021 111.211 193.105 110.967 192.123 110.551C191.602 110.33 191.112 110.065 190.653 109.754C190.199 109.458 189.777 109.128 189.386 108.765C189.006 108.407 188.666 108.031 188.369 107.639C188.082 107.251 187.847 106.862 187.665 106.472L189.092 105.443C189.271 105.322 189.453 105.248 189.637 105.222C189.822 105.196 190.027 105.231 190.253 105.327C190.479 105.423 190.663 105.576 190.806 105.787C190.958 106.002 191.135 106.24 191.338 106.499C191.54 106.759 191.792 107.028 192.091 107.305C192.4 107.587 192.83 107.844 193.38 108.077C193.812 108.261 194.201 108.368 194.547 108.399C194.907 108.424 195.221 108.394 195.488 108.311C195.765 108.231 195.993 108.102 196.173 107.924C196.367 107.739 196.514 107.529 196.614 107.294C196.764 106.94 196.779 106.605 196.659 106.287C196.548 105.974 196.351 105.659 196.069 105.342C195.796 105.029 195.46 104.713 195.063 104.394C194.679 104.069 194.285 103.728 193.88 103.372C193.485 103.019 193.106 102.643 192.741 102.246C192.391 101.842 192.108 101.404 191.892 100.93C191.685 100.46 191.574 99.9434 191.558 99.3805C191.551 98.8216 191.69 98.2083 191.973 97.5405C192.235 96.9218 192.608 96.3846 193.091 95.9289C193.573 95.4733 194.138 95.1391 194.784 94.9265C195.444 94.7082 196.18 94.6262 196.991 94.6804C197.816 94.729 198.696 94.9511 199.628 95.3466C200.669 95.7879 201.544 96.3616 202.253 97.0675C202.962 97.7735 203.482 98.527 203.814 99.3283L202.434 100.29ZM214.196 101.522C215.315 101.997 216.255 102.61 217.014 103.36C217.783 104.115 218.35 104.964 218.715 105.906C219.09 106.853 219.25 107.882 219.196 108.995C219.141 110.107 218.862 111.257 218.359 112.446C217.851 113.644 217.216 114.649 216.454 115.462C215.693 116.274 214.839 116.88 213.894 117.278C212.959 117.681 211.952 117.869 210.875 117.841C209.808 117.817 208.714 117.568 207.595 117.093C206.465 116.614 205.516 115.997 204.747 115.243C203.978 114.488 203.408 113.632 203.037 112.676C202.677 111.723 202.518 110.689 202.563 109.572C202.618 108.46 202.899 107.305 203.407 106.107C203.911 104.919 204.543 103.918 205.305 103.106C206.076 102.297 206.927 101.697 207.859 101.304C208.8 100.915 209.809 100.734 210.886 100.762C211.963 100.79 213.067 101.044 214.196 101.522ZM208.781 114.294C210.038 114.827 211.146 114.798 212.103 114.208C213.07 113.621 213.899 112.513 214.59 110.883C215.281 109.252 215.503 107.881 215.256 106.769C215.02 105.66 214.273 104.84 213.016 104.307C211.739 103.765 210.608 103.796 209.623 104.398C208.652 104.994 207.823 106.102 207.136 107.723C206.449 109.343 206.229 110.709 206.475 111.822C206.736 112.929 207.505 113.753 208.781 114.294ZM233.798 113.882C233.631 113.973 233.478 114.036 233.336 114.068C233.205 114.105 233.041 114.082 232.844 113.999C232.658 113.92 232.499 113.789 232.368 113.606C232.241 113.413 232.084 113.196 231.897 112.954C231.714 112.703 231.473 112.45 231.175 112.197C230.891 111.937 230.499 111.701 229.998 111.489C229.36 111.218 228.75 111.099 228.169 111.131C227.592 111.152 227.05 111.311 226.543 111.605C226.045 111.904 225.587 112.33 225.167 112.882C224.752 113.424 224.38 114.083 224.051 114.859C223.71 115.664 223.489 116.417 223.39 117.116C223.3 117.819 223.326 118.456 223.467 119.025C223.612 119.585 223.867 120.076 224.233 120.497C224.603 120.909 225.078 121.238 225.657 121.483C226.236 121.729 226.732 121.858 227.144 121.87C227.57 121.877 227.941 121.849 228.257 121.786C228.577 121.713 228.855 121.646 229.09 121.583C229.339 121.515 229.577 121.529 229.803 121.625C230.097 121.749 230.27 121.956 230.322 122.244L230.806 124.014C230.203 124.314 229.598 124.527 228.989 124.651C228.384 124.765 227.785 124.813 227.191 124.792C226.611 124.767 226.034 124.679 225.461 124.528C224.897 124.382 224.35 124.196 223.82 123.972C222.887 123.576 222.081 123.032 221.402 122.338C220.727 121.635 220.221 120.818 219.886 119.888C219.55 118.958 219.405 117.935 219.449 116.818C219.508 115.696 219.8 114.516 220.324 113.279C220.795 112.169 221.387 111.21 222.101 110.4C222.829 109.585 223.648 108.965 224.558 108.54C225.472 108.105 226.469 107.884 227.549 107.879C228.629 107.873 229.763 108.122 230.951 108.626C232.081 109.105 232.991 109.705 233.681 110.426C234.382 111.152 234.927 111.997 235.317 112.962L233.798 113.882ZM242.31 113.719L235.902 128.833L232.249 127.284L238.657 112.171L242.31 113.719ZM244.678 109.527C244.545 109.841 244.356 110.109 244.112 110.33C243.867 110.551 243.594 110.718 243.29 110.833C242.996 110.952 242.68 111.015 242.341 111.022C242.006 111.019 241.677 110.949 241.353 110.811C241.039 110.678 240.764 110.492 240.529 110.253C240.308 110.009 240.139 109.74 240.02 109.447C239.901 109.153 239.836 108.842 239.825 108.512C239.824 108.188 239.89 107.868 240.023 107.554C240.16 107.23 240.348 106.95 240.587 106.715C240.835 106.485 241.106 106.31 241.4 106.191C241.694 106.072 242.003 106.012 242.328 106.011C242.667 106.004 242.993 106.067 243.308 106.2C243.632 106.338 243.909 106.531 244.14 106.779C244.375 107.018 244.551 107.284 244.67 107.578C244.799 107.875 244.867 108.194 244.874 108.533C244.881 108.872 244.815 109.203 244.678 109.527ZM252.708 110.829L249.136 119.255C248.757 120.148 248.34 121.009 247.885 121.835C247.435 122.652 246.937 123.513 246.391 124.417L243.916 123.368C244.187 122.347 244.459 121.391 244.733 120.499C245.011 119.597 245.339 118.699 245.718 117.806L249.29 109.38L252.708 110.829ZM240.535 128.434C240.664 128.129 240.841 127.862 241.065 127.633C241.3 127.408 241.557 127.239 241.836 127.126C242.126 127.017 242.433 126.962 242.758 126.961C243.083 126.959 243.403 127.025 243.717 127.159C244.021 127.288 244.286 127.469 244.511 127.704C244.736 127.938 244.905 128.195 245.018 128.475C245.141 128.759 245.203 129.063 245.205 129.388C245.206 129.713 245.142 130.028 245.013 130.332C244.88 130.646 244.696 130.916 244.461 131.141C244.231 131.356 243.971 131.518 243.682 131.627C243.402 131.74 243.102 131.793 242.781 131.784C242.456 131.785 242.141 131.722 241.837 131.593C241.523 131.459 241.253 131.275 241.028 131.041C240.799 130.816 240.623 130.562 240.5 130.278C240.387 129.999 240.327 129.701 240.322 129.386C240.331 129.065 240.401 128.748 240.535 128.434Z" fill="#F2F0E9"/>
</g>
<defs>
<filter id="filter0_d_108_77" x="0" y="0" width="341" height="218" filterUnits="userSpaceOnUse" color-interpolation-filters="sRGB">
<feFlood flood-opacity="0" result="BackgroundImageFix"/>
<feColorMatrix in="SourceAlpha" type="matrix" values="0 0 0 0 0 0 0 0 0 0 0 0 0 0 0 0 0 0 127 0" result="hardAlpha"/>
<feOffset dy="4"/>
<feGaussianBlur stdDeviation="2"/>
<feComposite in2="hardAlpha" operator="out"/>
<feColorMatrix type="matrix" values="0 0 0 0 0 0 0 0 0 0 0 0 0 0 0 0 0 0 0.25 0"/>
<feBlend mode="normal" in2="BackgroundImageFix" result="effect1_dropShadow_108_77"/>
<feBlend mode="normal" in="SourceGraphic" in2="effect1_dropShadow_108_77" result="shape"/>
</filter>
<filter id="filter1_d_108_77" x="95.7402" y="49.304" width="161.685" height="91.2672" filterUnits="userSpaceOnUse" color-interpolation-filters="sRGB">
<feFlood flood-opacity="0" result="BackgroundImageFix"/>
<feColorMatrix in="SourceAlpha" type="matrix" values="0 0 0 0 0 0 0 0 0 0 0 0 0 0 0 0 0 0 127 0" result="hardAlpha"/>
<feOffset dy="4"/>
<feGaussianBlur stdDeviation="2"/>
<feComposite in2="hardAlpha" operator="out"/>
<feColorMatrix type="matrix" values="0 0 0 0 0 0 0 0 0 0 0 0 0 0 0 0 0 0 0.25 0"/>
<feBlend mode="normal" in2="BackgroundImageFix" result="effect1_dropShadow_108_77"/>
<feBlend mode="normal" in="SourceGraphic" in2="effect1_dropShadow_108_77" result="shape"/>
</filter>
</defs>
</svg>
