<svg width="333" height="210" viewBox="0 0 333 210" fill="none" xmlns="http://www.w3.org/2000/svg">
<path d="M292.881 210H290.794C286.31 208.291 281.535 207.489 277.06 205.727C276.143 205.366 275.183 205.551 274.24 205.63C272.373 205.692 271.122 204.459 269.712 203.534C268.4 202.274 267.052 201.111 265.043 201.137C264.427 201.137 263.88 200.776 263.546 200.248C261.643 197.252 259.026 196.354 255.67 197.481C254.498 197.878 253.917 197.19 253.538 196.204C253.476 194.31 252.604 193.085 250.64 192.882C248.772 192.689 247.195 191.79 245.583 190.944C241.302 188.997 237.716 185.932 233.69 183.579C231.946 182.557 231.602 179.853 229.946 179.5C228.008 179.077 226.334 178.505 224.801 177.36C222.714 175.8 220.511 174.399 218.362 172.946C217.789 172.558 217.04 172.276 216.705 171.704C215.058 168.876 212.08 168.7 209.411 167.898C208.997 167.774 208.442 167.854 208.187 167.519C205.861 164.427 201.967 164.744 198.928 163.229C194.532 161.035 189.748 159.484 186.365 155.635C185.714 154.894 184.965 154.357 184.04 154.031C179.476 152.437 176.279 149.591 175.362 144.613C175.125 143.292 174.12 142.578 173.028 141.988C169.751 140.191 166.597 138.191 163.399 136.279C162.122 135.513 160.862 134.808 159.32 134.702C157.964 134.614 156.783 133.883 155.84 133.046C152.29 129.901 147.762 128.368 143.983 125.619C142.794 124.756 141.543 124.501 140.071 124.606C136.512 124.862 132.936 125.003 129.694 123.065C128.725 122.695 127.817 122.21 127.104 121.47C125.994 120.316 124.69 119.972 123.166 120.316C120.92 119.206 118.708 118.21 116.03 118.439C114.594 118.563 113.475 117.083 112.119 116.501C111.079 116.061 110.101 115.409 108.912 115.955C106.683 116.986 104.648 116.211 103.204 114.686C101.327 112.713 99.6357 112.722 97.5038 114.043C95.5921 115.241 93.654 115.25 91.6367 113.973C89.9012 112.872 88.1481 113.065 86.7562 114.766C86.069 115.594 85.2674 116.307 84.1398 116.281C81.8229 116.228 79.8143 116.898 77.7264 117.955C76.3081 118.677 74.9338 119.047 74.2202 120.668C73.6564 121.963 72.3526 122.113 71.1017 122.087C69.3662 122.051 67.6571 121.99 66.0098 122.774C65.0583 123.223 64.1245 122.844 63.4198 122.078C62.4331 121.012 61.4729 121.188 60.4774 122.06C58.5393 123.769 56.2488 124.263 53.7117 124.21C50.505 124.148 47.3071 124.148 44.1005 124.589C40.9819 125.02 37.8633 124.791 34.9474 123.329C33.5731 122.633 32.19 122.351 30.7981 123.417C29.8643 124.131 28.7983 124.025 27.8998 123.302C26.4462 122.148 25.2745 122.615 23.9443 123.62C21.3455 125.584 19.61 124.976 18.4736 121.849C17.1257 118.157 18.4736 114.66 19.3369 111.154C19.6717 109.815 20.2795 108.537 20.8962 107.295C21.7067 105.648 21.9093 103.991 21.2045 102.265C20.6231 100.837 20.861 99.604 21.9269 98.4323C23.0986 97.146 23.8033 95.5162 24.7283 94.0538C25.715 92.4944 25.8207 90.847 24.8429 89.1291C23.2924 86.4069 23.5479 83.6318 24.8957 80.9007C25.4771 79.7202 26.3229 79.0242 27.4152 79.2268C24.1469 77.7468 22.8695 74.7074 22.4731 71.1042C22.3145 69.6417 22.9752 68.796 24.3671 68.4084C23.8826 68.2057 23.1779 68.3555 22.9488 67.9679C21.0812 64.7347 18.174 66.5143 15.7074 66.5054C14.2186 66.5054 12.8267 66.7081 11.4788 65.7918C10.4217 65.0694 9.12667 65.3337 7.91976 65.2809C3.09214 65.0606 1.88524 63.8977 1.9469 59.1316C1.98214 56.5591 1.9469 54.0836 0 52.1014V47.9343C0.36119 47.4586 0.599048 46.7097 1.28619 46.7538C4.92452 47.0005 6.29 43.2651 9.24119 42.252C10.3071 41.8908 10.0869 40.6574 9.75214 39.7147C9.25 38.3228 9.51429 37.107 10.6595 36.1996C13.8221 33.7064 15.4079 30.2882 16.5002 26.5616C17.0817 24.5882 18.1564 22.9408 19.5748 21.496C20.7024 20.3595 21.83 20.1921 23.2748 21.1612C26.0321 23.0025 26.0145 22.8263 28.6926 20.7736C30.5514 19.3464 32.9917 19.3904 35.194 19.2407C38.7443 18.994 42.3033 18.994 45.7655 18.0337C46.8402 17.7342 47.5626 18.4037 48.3555 18.95C51.1481 20.8881 52.6017 20.6855 54.3195 17.8575C55.0859 16.6065 55.8876 16.0779 57.2707 16.5625C59.341 17.2937 61.376 16.8973 63.4374 16.492C66.8202 15.8313 69.745 17.373 70.7757 20.6414C71.3924 22.5884 72.0707 23.7777 74.3788 23.0465C75.3831 22.7294 76.405 23.3989 77.4445 23.4165C77.9202 22.6148 77.2067 22.0863 77.0921 21.4519C76.6252 18.7209 77.4357 17.2673 80.105 16.6153C81.6907 16.2277 83.0298 15.6815 83.9724 14.2455C84.9238 12.8007 86.2893 12.9593 87.6812 13.5583C88.659 13.9812 89.4343 14.686 90.1479 15.4524C91.7952 17.2232 93.795 17.3818 95.8829 16.5889C97.5831 15.9458 99.3714 15.4613 100.895 14.4305C102.42 13.3998 103.653 13.7786 104.807 15.0208C105.159 15.3996 105.626 15.7256 105.838 16.1837C107.459 19.6195 110.771 19.8486 113.872 20.4652C114.903 20.6679 115.713 20.1833 116.444 19.505C121.06 15.2322 126.39 13.7169 132.53 15.3555C133.693 15.6639 134.689 15.4965 135.72 14.8005C138.31 13.0562 141.137 11.6995 143.754 9.99035C145.331 9.46176 146.282 10.5189 147.322 11.3823C148.317 12.0959 149.198 12.9593 149.806 14.0076C151.33 16.6594 154.07 17.6813 156.475 19.1702C157.356 19.7164 157.629 19.2231 157.972 18.4742C159.919 14.2367 160.272 14.0957 164.861 15.2851C168.121 16.1308 171.248 13.8843 171.292 10.5454C171.319 8.54554 171.715 7.03025 173.979 6.45761C175.398 6.09641 175.97 4.60754 176.807 3.52393C177.75 2.29937 178.331 0.784075 179.785 0H180.824C182.058 0.590259 182.613 1.60339 182.419 2.92486C182.243 4.10538 182.71 5.10089 183.115 6.13164C182.718 7.93766 182.665 9.78773 182.128 11.6026C181.388 14.1134 183.432 15.2058 185.229 16.2541C186.057 16.8268 186.445 17.6549 186.568 18.624C186.744 20.0424 186.586 21.5841 188.348 22.236C190.171 22.9144 190.532 20.9938 191.66 20.4212C192.189 20.1393 192.823 20.0688 193.193 19.505C194.417 17.6461 196.259 17.4875 198.25 17.6109C199.095 17.6637 200.223 18.2452 200.584 16.8004C201.086 15.5053 200.919 14.0253 201.659 12.7919C202.267 11.7787 203.015 10.889 204.337 11.1532C205.526 11.3911 205.94 12.4131 206.16 13.4614C206.539 15.2498 205.984 16.9501 205.271 18.5095C203.245 22.9408 202.663 27.8743 200.311 32.1823C199.562 33.5567 199.959 35.0719 201.324 35.8208C202.778 36.6225 204.513 37.0189 205.896 35.5917C207.958 33.4686 210.468 31.2309 211.032 28.5174C211.719 25.1961 212.08 21.5665 211.86 18.1835C211.728 16.0779 210.433 13.8138 210.081 11.4968C210.019 11.0652 209.913 10.6423 209.913 10.2106C209.913 9.10056 209.596 7.7967 210.768 7.14478C212.028 6.43999 212.829 7.53241 213.657 8.28124C214.433 9.17985 215.287 8.86269 216.239 8.56316C218.326 7.91123 220.317 7.94647 221.912 9.77892C223.084 11.1356 224.942 10.8361 226.405 11.5497C228.907 12.7654 229.241 13.576 227.303 15.4436C225.92 16.7739 226.502 18.3068 226.334 19.7869C226.361 22.1567 226.484 24.5354 225.127 26.6586C224.978 27.4338 225.136 28.2091 225.154 28.9844C225.198 30.4732 225.867 31.037 227.383 31.1956C230.73 31.5392 231.594 33.1866 230.272 36.2437C229.453 38.1378 230.281 39.5561 232.307 39.5209C233.743 39.4945 235.047 39.6442 236.192 40.6133C236.897 41.2124 237.707 41.4415 238.571 40.8952C239.02 39.5121 239.02 38.0321 239.531 36.6489C239.989 35.4155 240.456 34.3231 241.989 34.4641C243.566 34.605 244.5 35.8825 244.288 37.1423C243.839 39.794 245.284 41.0186 247.116 42.3312C248.869 43.5911 249.495 45.4676 249.019 47.6348C248.878 48.2867 248.473 48.9474 248.992 49.617C249.662 50.3041 250.27 51.1499 251.204 51.3966C253.327 51.9604 254.745 53.0352 255.036 55.3786C255.177 56.5063 256.163 56.5679 257.071 56.4358C258.921 56.1539 259.661 57.1142 259.634 58.788C259.599 60.8495 260.41 61.4486 262.568 61.66C266.832 62.0829 270.558 60.3474 274.478 59.3871C276.17 58.973 277.667 58.8409 279.244 59.6338C280.883 60.4531 282.742 60.6205 284.451 61.2548C285.296 61.5631 286.08 62.0124 286.151 63.0167C286.23 64.1444 285.244 64.3735 284.477 64.717C280.742 66.3733 280.469 67.3424 283.499 70.1175C286.001 72.3992 286.741 74.496 285.155 77.8261C283.737 80.8126 282.98 84.2132 282.839 87.6226C284.415 88.9 286.142 89.9396 287.684 91.2699C289.393 92.7411 289.666 94.0714 288.204 95.8598C286.415 98.0446 283.508 98.6789 280.68 97.5513C279.746 97.1813 278.989 96.2915 277.844 96.5205C277.518 96.6703 277.218 96.8553 276.945 97.0756C274.848 100.133 275.923 102.617 279.579 103.049C280.698 103.181 281.781 103.427 282.874 103.674C284.68 104.846 285.922 104.467 286.776 102.432C287.164 101.516 287.728 100.626 288.538 99.9564C292.045 97.1725 295.005 97.5777 296.529 101.031C297.26 102.687 297.207 104.194 295.859 105.551C295.145 106.273 294.265 106.916 294.168 108.061C293.41 111.48 294.802 113.99 297.559 115.849C299.674 117.268 300.74 119.223 300.889 121.725C301.145 125.937 302.634 129.416 306.395 131.751C307.629 132.518 308.615 133.707 309.435 134.94C310.782 136.958 312.368 138.561 314.932 138.905C315.61 138.993 316.5 139.266 316.588 139.988C316.905 142.71 319.231 144.569 319.433 147.406C319.636 150.225 320.949 151.714 323.591 151.3C329.168 150.41 330.974 154.137 333 157.89V158.41C332.612 158.788 332.128 159.026 331.599 159.018C327.6 158.956 323.644 159.352 319.698 159.969C318.455 160.163 317.486 159.555 316.852 158.524C314.703 155.071 311.663 152.507 308.536 150.014C307.919 149.52 307.4 148.948 307.03 148.243C306.721 147.644 306.254 147.3 305.558 147.433C302.819 147.988 300.607 146.657 298.537 145.265C294.714 142.693 290.406 143.556 286.036 142.807C286.512 144.102 287.375 144.102 288.036 144.331C289.772 144.922 291.472 145.591 292.925 146.719C294.608 148.014 296.581 148.428 298.546 149.089C302.651 150.472 307.003 151.908 308.932 156.515C309.1 156.912 309.285 157.361 309.62 157.608C312.817 160.057 313.557 163.405 313.601 167.237C313.628 169.81 314.104 172.408 314.659 174.954C315.081 176.893 314.711 178.558 313.223 179.923C312.368 180.707 312.007 181.703 311.655 182.822C310.976 184.962 310.677 186.892 312.042 188.927C312.809 190.055 312.007 191.147 311.003 191.79C308.615 193.305 307.91 195.429 307.364 198.204C306.695 201.631 304.501 204.626 300.88 206C300.237 206.247 299.383 206.256 299.03 206.855C297.63 209.251 295.26 209.63 292.864 210H292.881Z" fill="#98082C"/>
</svg>
